<?xml version="1.0" encoding="UTF-8"?>
<svg id="Layer_1" data-name="Layer 1" xmlns="http://www.w3.org/2000/svg" viewBox="0 0 889.76 435.43">
  <defs>
    <style>
      .cls-1 {
        fill: #db1f26;
      }

      .cls-2 {
        fill: #1f3364;
      }

      .cls-3 {
        fill: #223b73;
      }

      .cls-4 {
        fill: #223b74;
      }
    </style>
  </defs>
  <path class="cls-1" d="M97.4,141.98l9.29-10.42,26.48-30.54,16.86-19.21,34.67-39.49,23.14,17.15,7.46,6.17,25.78-28.77L274.85,0l37.46,51.91,12.26-14.47,55.58,77.4c-66.06-9.13-119.44,9.65-173.83,44.6-27.53-24.63-67.65-33.95-102.42-18.53l-6.5,1.06ZM227.22,85.4l20.98,18.56c13.23-19.67,24.6-39.73,34.81-61.58-6.86,3.26-11.95,7.17-19.12,11.64,3.46-12.08,6.85-22.84,8.38-36.55l-32.77,37.89c-14.63,16.91-29.39,32.42-44.87,48.43l17.87-1.15,14.71-17.23ZM174.39,107.43c12.46-10.49,22.9-22.84,32.45-34.29l-21-16.99-56.58,68.11c8.24-3.67,14.85-8.33,22-13.09l24.37-16.24-1.24,12.49ZM316.17,93.86c1.28-7.15,2.36-12.94,2.91-19.06l1.32-14.62-14.33,15.72-23.94,26.56,34.04-8.6Z"/>
  <path class="cls-1" d="M105.14,307.05c-21.55,13.7-43.67,22.28-69.42,22.83-12.56.27-24.6-1.38-35.72-8.72,34.49-3.33,63.13-20.75,88.15-42.24,22.57-19.39,43.63-39.14,64.98-59.92,21.18-20.62,43.23-38.95,67.7-55.34,10.08-6.75,19.94-11.97,30.79-17.45,46.04-23.28,87.65-31.44,139.09-22.09,5,.91,9.29,2.49,13.33,5.22l-24.38-.88c-42.61-1.55-84.61,16.11-118.92,40.3-20.93,14.76-39.17,31.47-57.42,49.48l-57.32,56.58c-12.55,12.39-26.03,22.8-40.88,32.24Z"/>
  <path class="cls-3" d="M115,197.86c15.76-11.06,52.43-29.89,73.29-28.88-20.37,14.24-38.28,29.29-56.1,46.04l-32.01,30.09c-15.84,14.89-32.11,28.53-49.72,41.16l-13.47,8.41v-104.65c25.11-21.96,54.86-37.71,87.71-43.36,23.97-4.13,47.48,1.45,67.15,14.62-10.27.49-19.32-.21-28.63,2.04-13.74,3.33-26.43,8.81-38.39,16.63-25.18,16.45-47.89,35.84-67.66,59.43l25.64-18.91,32.19-22.6Z"/>
  <path class="cls-4" d="M79.04,144.45l-8.68,4.94c-12.14,6.03-23.09,13.49-33.45,22.43l.05-113.14,120.18.28-44.69,49.28-33.41,36.22Z"/>
  <path class="cls-1" d="M889.32,131.57l-467.7-.02c-3.83-4.61-7-9.34-10.19-15.09h478c.46,4.96.44,8.96-.11,15.11Z"/>
  <path class="cls-2" d="M372.28,230.91c-2.9,15.37-23.02,17.92-35.58,17.91l-45.38-.04.11-82.92,52.28.19c6.81.02,14.13,2.01,19.22,6.14,5.9,4.79,7.37,12.39,5.23,19.79-1.65,5.74-7.13,10.61-13.91,13.38,12.68,2.67,20.45,12.67,18.03,25.55ZM345.57,190.03c-.45-12.81-18.34-9.26-27.73-9.85l-.1,20.4c9.23-.46,28.29,2.46,27.83-10.55ZM348.91,222.97c-.28-4.36-3.74-8.87-9.54-9.08l-21.51-.81.17,20.95c10.97-.5,31.79,3.37,30.88-11.06Z"/>
  <path class="cls-2" d="M602.27,205.15c8.68,2.27,14.7,6.88,17.09,13.6,2.96,8.33,1.46,16.63-4.92,22.56-7.06,5.29-15.72,7.44-24.76,7.43l-48.99-.04.04-82.91,48.02.15c7.83.02,14.71,2.11,21.29,6.21,3.21,3.44,5.28,7.59,5.82,12.28,1.11,9.62-3.74,17.15-13.59,20.72ZM592.86,189.97c-.03-4.85-3.45-9.21-9.29-9.41l-17.44-.58-.11,20.44c10.25-.4,26.94,2.99,26.84-10.45ZM596.72,223.03c-.84-12.54-21.44-9.17-30.58-9.67l-.03,20.65c10.25-.25,31.57,3.28,30.62-10.98Z"/>
  <path class="cls-2" d="M719.64,198.58c3.7,22.39-4.22,42.71-26.75,49.47-14.38,4.31-30.43,3.55-44.09-2.66-15.48-7.05-22.59-22.48-22.57-38.87.02-17.19,8.47-32.38,25.01-38.67,25.27-9.6,62.92-2.41,68.4,30.73ZM672.33,234.02c9.48.79,17.06-4.68,19.54-13.44,3.13-11.07,2.94-24.18-4.76-33.61-7.31-8.95-23.72-8.08-29.8,1.95-6.99,11.52-6.16,26.48.29,37.69,2.91,5.06,8.9,6.92,14.73,7.41Z"/>
  <path class="cls-2" d="M476.41,215.67l-15.8-.26-.18-13.94,37.54-.16-.15,44.8c-17.28,5.08-34.36,6.14-50.91,2.55-18.29-4.67-29.4-18.66-30.91-36.91-1.73-20.88,9.76-39.88,30.73-45.33,16.32-4.24,33.55-2.8,49.64,3.45v19.2c-13.13-6.59-40.03-12.06-48.25.99-6.77,10.75-7.37,26.84,1.04,37.04,6.48,7.85,18.44,7.38,27.04,4.25l.22-15.67Z"/>
  <path class="cls-2" d="M865.94,243.59c-15.34,10.64-43.86,8.08-61.31,1.62l.41-18.08c13.14,4.26,27.04,9.16,41.02,4.92,2.78-.84,4.8-3.53,4.92-6,.46-9.55-18.51-8.09-36.7-16.89-11.49-5.56-15.67-18.34-9.71-29.79,10.58-20.32,45.51-17.38,63.79-9.43l.36,18.63c-12.35-5.33-23.54-10.23-37-7.11-2.48.58-4.86,3.46-5.04,5.59-.95,10.94,29.26,8.53,42.11,20.45,10.9,10.11,9.08,27.81-2.86,36.09Z"/>
  <polygon class="cls-2" points="772.9 215.39 772.61 248.75 748.37 248.76 748.18 215.85 731.44 190.65 716.12 166.07 742.83 165.73 761.86 198.33 780.64 165.97 804.55 165.97 772.9 215.39"/>
  <polygon class="cls-2" points="405.77 248.56 380.73 248.88 380.68 165.96 405.65 165.89 405.77 248.56"/>
  <path class="cls-1" d="M515.41,319.04c-2.39,1.54-6.98,3.42-9.63,3.43l-32.09.11v-47.11c12.72,1.28,40.92-4.99,43.8,8.82,1.12,5.36-.92,10.53-6.02,12.89,5.2,2.16,8.35,5.14,9.02,9.36.73,4.58-.38,9.49-5.07,12.51ZM502.17,293.6c1.54-.37,2.06-5.01,1.3-6.18s-3.08-2.75-4.52-2.78l-10.99-.2-.18,10.23c4.76.07,9.68.06,14.38-1.07ZM506.45,308.7c2.36-7.73-14.33-5.67-18.72-6.2l.3,10.73c5.98-.27,16.38,2.15,18.42-4.53Z"/>
  <path class="cls-1" d="M234.05,316.4c-2.91,4.02-8.56,6.03-13.4,6.05l-30.96.14v-47.2c13.54,1.47,40.09-5.11,43.75,9.01,1.26,4.87-1.01,9.51-5.78,12.43,3.32,1.83,7.04,4.45,8.13,7.22,1.62,4.15,1.05,8.49-1.75,12.35ZM217.18,294.01c1.61-.16,3.53-4.15,3.01-5.67-.46-1.35-2.98-3.66-4.42-3.69l-11.87-.22-.22,10.27c4.93-.1,8.02-.15,13.5-.69ZM221.91,306.95c-.16-1.9-2.82-4.26-5.15-4.28l-12.96-.09.04,10.66c6.07-.32,18.8,2.37,18.07-6.28Z"/>
  <path class="cls-3" d="M198.37,369.51H21.86c-.52-3.14-.52-5.85.01-9.01l176.77.03-.27,8.97Z"/>
  <path class="cls-3" d="M875.49,369.53h-176.08c-.79-2.65-.8-5.71-.4-9.01h176.5c.49,2.9.5,5.15-.02,9.01Z"/>
  <polygon class="cls-1" points="705.06 275.37 705.09 322.46 693.32 322.24 668.96 294.18 668.84 322.52 656.62 322.44 656.65 275.36 670.58 275.62 678.84 285.34 692.54 301.7 692.72 275.47 705.06 275.37"/>
  <path class="cls-1" d="M751.69,302.67l-21.69-.02-.19,9.56,25.98.06-.13,10.25-39.97.02v-47.13s39.59-.07,39.59-.07c.36,2.95.36,6.18.15,9.86l-25.5.31-.04,8.19,21.87-.27-.07,9.25Z"/>
  <path class="cls-1" d="M581.53,320.22l.16-11.94c7.7,3.29,21.68,9.29,28.69,1.08-7.09-7.46-20.99-4.75-27.42-13.09-4.72-6.12-1.87-15.09,4.97-18.75,9.99-5.34,21.71-4.03,32.57.47v11.09c-6.22-2.49-26.56-8.75-25.97-1.07.39,5.07,13.83,4,24.32,10.35,4.61,2.79,4.67,8.87,3.69,14.21-2.52,13.73-29.29,12.28-41.02,7.65Z"/>
  <path class="cls-1" d="M842.99,321.72c-10.31,3.43-21.55,2.35-31.66-1.96-1.07-3.36-.82-8-.17-11.38,6.08,2.88,26.53,8.67,27.65,1.59.24-1.51-1.91-4.25-3.53-4.69l-14.21-3.84c-6.01-1.63-10.1-5.82-10.53-11.49s3.12-11.18,9.24-13.56c9.71-3.78,20.64-2.41,30.31,1.76l-.32,10.67c-5.66-2.97-26.79-7.75-25.91-.81.14,1.08,1.87,2.81,3.02,3.14l18.68,5.26c5.36,1.51,7.24,6.16,7.57,10.76.5,6.96-2.87,12.13-10.14,14.56Z"/>
  <path class="cls-1" d="M804.4,312.41c-2.9,13.74-30.77,13.25-41.62,7.16l-.07-11.13c5.34,2.36,26.9,9.17,28.11,1.42.2-1.29-1.74-3.78-3.04-4.14l-14.87-4.15c-5.48-1.53-9.99-5.59-10.32-10.6-.36-5.45,1.78-11.1,7.12-13.64,10.18-4.83,21.9-3.86,32.09.92l-.13,10.51c-7.38-2.35-12.78-4.15-20.08-4.6-2.27-.14-7.04,2.52-5.33,5.1,3.06,4.6,16.24,2.65,25.41,10.27,3.59,2.98,3.71,8.19,2.72,12.88Z"/>
  <path class="cls-1" d="M562.18,275.33l10.7.13c.12,11.05.23,21.11-.22,32.02-.57,13.96-21.03,20.03-35.69,13.63-5.03-2.2-9.49-6.63-9.52-12.59l-.16-33.09,13.59-.03.35,30.83c.04,3.9,4.56,6.55,7.2,6.97,4.07.65,8.75-.02,10.44-4.4,2.73-7.1-.39-19.69,1.38-30.1-.1-.49-.28-1.44-.37-1.78-.14-.5,1.78-1.61,2.3-1.61Z"/>
  <path class="cls-1" d="M275.02,313.49l-20.1.02-3.44,9.06-13.01-.3,19.17-46.78,15.55-.15,19.88,47.03-14.95.15-3.1-9.05ZM271.58,304.54l-6.98-17.05-6.69,16.93,13.67.12Z"/>
  <path class="cls-1" d="M424.2,309.24c7.95,6.53,17.49,3.4,26.27-.78l.21,11.14c-8.59,3.98-17.55,5-26.78,2.79s-15.68-9.38-17.51-17.5c-2.09-9.28.81-19.52,8.73-24.95,10.56-7.22,23.65-7.41,35.22-2.6.25,4.32.24,8.1-.01,11.87-8.69-4.41-16.45-7.01-24.39-2.11-6.85,4.23-8.48,16.59-1.74,22.13Z"/>
  <path class="cls-3" d="M724.53,411.2c10.21-2.95,30.52-3.72,32.73,8.51.7,3.87-1.29,8.77-5.11,11.41-6.82,4.72-15.6,4.78-23.65,3.84-11.4-1.33-18.32-10.94-16.42-22.12,1.47-8.68,7.05-15.04,15.82-17.35s18.06-1.25,26.39,2.47c.48,2.1.21,5.44-.47,7.29-8.24-3.05-28.69-6.58-29.29,5.96ZM741.89,426.74c1.31-.6,2.93-3.41,2.99-4.75.34-7.25-13.12-7.02-18.73-4.9-1.95,1.91-2.42,5.37-.35,7.25,4.43,4.02,9.84,5.24,16.09,2.4Z"/>
  <polygon class="cls-1" points="361.79 322.38 347.69 322.58 347.71 285.75 331.73 285.45 331.79 275.4 375.61 275.4 375.73 285.51 361.75 285.55 361.79 322.38"/>
  <path class="cls-3" d="M664.45,434.52c-.29-2.06-.09-5.22.36-7.7,6.65-3.53,28.91-12.46,26.86-20.56-1.77-7-19.43-2.31-25.75.82-.84-1.49-1.15-5.12-.47-7.54,9.7-6.86,35.66-8.65,39.01,5.03,2.82,11.52-14.64,17.98-22.93,21.81l23.37-.44-.09,8.57h-40.36Z"/>
  <polygon class="cls-1" points="337.62 312.3 337.6 322.58 298.44 322.55 298.31 275.67 312.71 275.28 312.7 312.1 337.62 312.3"/>
  <path class="cls-3" d="M183.42,400.34c1.2-1.77,7.27-1.3,8.6-.43l-11.94,29.5-8.97.05-6.84-17.11-6.11,16.97-9.42.26-12.18-30.15,10.2-.08,7.4,21.18,6.98-20.74c1.71-.71,5.58-.73,7.42.01l7.2,19.36,7.67-18.82Z"/>
  <path class="cls-3" d="M548.02,429.67l-.46-19.61-8.47,15.17c-.4.72-1.51,1.95-2.15,2.46-.8.64-3.75-.32-4.45-1.57l-9.33-16.69-.04,19.9-8.38.13v-30.17s12.36,0,12.36,0l9.08,17.23,9.81-17.17,10.77.07.1,30.21-8.83.02Z"/>
  <path class="cls-3" d="M495.89,429.68l-.47-19.58-8.34,14.85c-.49.86-2,2.52-2.94,2.65-1.13.16-3.3-1.3-3.97-2.47l-9.03-15.76-.1,19.81-7.89.51.09-30.38,11.24.12,9.7,16.78,9.66-16.78,10.86-.16.03,30.23-8.82.18Z"/>
  <path class="cls-3" d="M249.94,429c-1.42.97-6.89,1.33-8.55-.52l-15.58-17.32-.18,18.09c-2.19.25-5.63.26-8.45.1l-.06-29.87c2.71-.25,6.88-.39,9.42.01l14.82,16.38.58-16.59,7.86.07.14,29.65Z"/>
  <path class="cls-3" d="M346.29,422.41c-1.25-2.52-6.95-4.46-7.12-2.26l-.74,9.38-8.98-.02-.29-30.22,20.54-.23c5.35-.06,9.48,3.57,10,7.98.6,5.1-1.78,8.92-7.42,10.05l10.8,12.3c-8.34.72-12.63,1.44-16.79-6.97ZM348.56,412.43c1.06-.46,2.12-3.16,1.86-4.2s-2.17-2.94-3.37-3.05l-8.35-.73.05,9.33c3.17.05,7.37-.28,9.8-1.34Z"/>
  <polygon class="cls-1" points="645.78 322.46 631.67 322.49 631.67 275.44 645.73 275.42 645.78 322.46"/>
  <polygon class="cls-1" points="397.99 322.43 384.44 322.5 384.45 275.4 397.9 275.48 397.99 322.43"/>
  <path class="cls-3" d="M413.84,420.02c.64,12.22-18.75,12.3-28.88,8.24-1.55-.62-1.46-5.75-.28-6.6,5.46,1.26,16.21,4.93,20.09.26,3.6-4.34-21.7-3.22-21.14-13.89.57-11.04,19.57-11.53,27.53-7.18.3,2.23.32,5.24.15,7.03-4.7-2.01-17.8-5.17-18.12-.85-.05.61,1.25,2.07,1.85,2.23l12.23,3.45c3.87,1.09,6.41,3.96,6.59,7.31Z"/>
  <path class="cls-3" d="M318.48,417.41l-13.93-.11c-.92.98-1.39,4.47-1.17,5.93l16.42.34c1.76.04,1.7,6,.07,6l-26.15.05-.04-30.35,27-.09-.4,6.33-15.83.16c-1.43.01-1.73,4.95-.37,5.43l14.13.34.28,5.97Z"/>
  <path class="cls-3" d="M454.83,399.38l-.11,18.15c-.04,5.87-3.99,10.89-9.73,12.35-9.47,2.41-23.54.24-23.66-10.26l-.25-20.45,9.63.2c.19,7.61-.69,13.89.82,20.99,1.02,4.77,12.64,4.96,13.86.27,1.76-6.76.77-13.18,1.06-20.84,1.96-.5,5.3-.57,8.39-.41Z"/>
  <polygon class="cls-3" points="605.73 429.59 595.7 429.6 595.69 406.52 584.56 406.21 584.68 399.22 617.58 399.23 617.42 406.35 605.71 406.52 605.73 429.59"/>
  <polygon class="cls-3" points="277.35 429.54 267.9 429.55 267.81 406.13 257.27 406.14 256.82 399.22 288.65 399.24 288.02 406.15 277.36 406.2 277.35 429.54"/>
  <path class="cls-3" d="M511.19,377.49c-7.13.46-13.85-1.78-16.55-8.13-1.57-3.71-.26-8.45,2.09-11.37,5.34-6.65,20.78-7.65,25.88,1.48,2.11,3.78,1.85,8.62-.75,12.3-1.96,2.78-5.87,5.4-10.67,5.72ZM511.18,372.39c4.65-.91,5.85-4.54,5.59-8.45-.21-3.19-3.47-5.72-7.21-6.1-5.23-.53-8.98,3.67-8.52,8.15.48,4.71,4.77,7.46,10.15,6.41Z"/>
  <path class="cls-3" d="M607.58,375.54c-7.56,3.73-18.7,1.2-19.59-.84-.4-.9-.06-3.69.28-4.01,5.93.73,10.92,4.73,16.33-.63l-11.98-3.69c-1.95-.6-4.47-2.9-4.82-4.61-.45-2.21,1.02-5.87,3.32-7.07,5.17-2.72,16.26-2.39,18.07.89.47.86.17,3.66-.29,3.94-2.1-.8-16.35-2.62-14.12.53.29.41,1.18,1.6,1.71,1.75l9.48,2.55c2.05.55,4.47,3.04,4.71,4.71.26,1.79-1.16,5.52-3.11,6.48Z"/>
  <path class="cls-3" d="M232.21,367.65l-10.29.38-.14,4.05,14.01.35.69,4.21-22.44-.04.16-23.2,21.52.03-.12,4.96-13.94.24.08,4.97,10.15.18c.98.02,1.36,3.83.31,3.87Z"/>
  <path class="cls-3" d="M467.28,368.1l-9.4-.08-.11,4.2h12.06c1.16,0,1.63,4.32.61,4.34l-20.54.1-.14-23.28,19.85.02c1.28,0,1.6,4.09.74,4.84l-11.64.37c-.75.02-1.67,1.36-1.6,2.04s.92,3.03,1.59,3.03h7.1c.85-.01,2.3.75,2.75,1.35s-.53,3.07-1.27,3.07Z"/>
  <path class="cls-3" d="M356.57,353.42l6.64.2-.3,12.92c-.16,7-5.35,11.11-12.33,11.02-4.56-.06-11.23-1.09-12.56-6.46s-.94-11.15-.95-17.44l7.13-.06c.08,5.95.11,10,.5,16.16.14,2.21,5.23,3.1,7.22,2.68,2.62-.55,4.66-3.61,4.66-6.75v-12.26Z"/>
  <path class="cls-3" d="M681.09,367.67l-9.84.52c-1.03.05-1.52,3.91-.43,3.93l12.98.25.68,4.25-21.73.03.15-23.25h20.73s-.06,5.04-.06,5.04l-13.92.05.9,5.31,9.89-.02c.87,0,1.52,3.83.64,3.88Z"/>
  <path class="cls-3" d="M270.64,376.32c-3.01.29-7.3.53-9.06-.32l-5.64-7.04-5.89,7.05c-1.12,1.34-6.15.41-7.49.1l9.39-10.65-9.55-11.51c2.33-.74,7.54-1.31,8.97.42l5.28,6.4,5.77-6.63c1.09-1.26,5.22-.78,7.47-.16l-9.27,10.67,10.01,11.65Z"/>
  <path class="cls-3" d="M295.09,367.79l-10.34.38.17,4.04,11,.03c1.05,0,2.88.8,3.08,1.65s-1.22,2.9-2.19,2.89l-19.3-.24v-23.18s21.06.16,21.06.16l-.94,4.85-11.9.26c-1.27.04-1.53,3.82-.96,4.98l10.93.27-.6,3.91Z"/>
  <path class="cls-3" d="M318.86,372.35c3.25.41,6.63-.67,10.09-1.78,1.34-.43,2.08,4.44.77,5.03-9.48,4.27-23.08,1.01-24.17-8.7-.53-4.71,1.53-9.41,5.8-11.86,5.28-3.03,11.7-2.44,17.6-.67l.78,5.69c-5.07-1.63-9.29-2.92-14.24-.63-2.36,1.1-3.14,4.8-2.76,7.51.3,2.14,2.98,5.02,6.13,5.41Z"/>
  <polygon class="cls-3" points="207.59 429.55 197.71 429.63 197.65 399.35 207.62 399.35 207.59 429.55"/>
  <path class="cls-3" d="M436.89,354.16c1.45-.83,4.89-.89,6.98-.5l-10.11,21.99c-1.38,1.36-5.67,1.38-7.76.56l-10.79-22.16c2.29-.6,5.57-.65,7.91-.16l7.13,15.65,6.63-15.37Z"/>
  <polygon class="cls-3" points="577.44 429.49 567.33 429.64 567.34 399.33 577.37 399.31 577.44 429.49"/>
  <path class="cls-3" d="M550.02,364.6c1.15.02,1.25,4.42.43,4.73l-10.77.11-.24,7.25-7.1-.54.02-22.72,20.99.03-.2,4.89-13.3.26-.2,5.81,10.37.17Z"/>
  <polygon class="cls-3" points="579.46 364.35 579.56 369.2 568.23 369.36 568.49 376.61 561.13 376.5 561.16 353.37 581.53 353.51 581.53 358.45 568.29 358.58 568.23 364.5 579.46 364.35"/>
  <polygon class="cls-3" points="385.93 376.4 378.91 376.53 378.89 358.58 369.84 358.41 370.14 353.44 395.25 353.38 395.72 358.44 386.14 358.52 385.93 376.4"/>
  <polygon class="cls-3" points="648.48 376.4 641.48 376.55 641.21 358.63 632.38 358.37 632.2 353.48 657.6 353.34 657.08 358.18 648.49 358.8 648.48 376.4"/>
  <polygon class="cls-3" points="654.55 418.53 629.68 418.42 629.72 410.45 654.71 410.52 654.55 418.53"/>
  <polygon class="cls-3" points="625.75 376.47 618.19 376.31 618.34 353.77 625.58 353.49 625.75 376.47"/>
  <path class="cls-3" d="M409.09,375.62c-1.69.88-4.84,1.02-7.38.8l.11-22.63,7.2-.27.07,22.11Z"/>
</svg>